<svg width="64" height="64" fill="none" xmlns="http://www.w3.org/2000/svg"><path d="M54 47.5c0 .5-5 .5-7 .5H34c-11.05 0-20-.45-20-1s8.95-1 20-1 20 .95 20 1.5Z" fill="#D5D7DB"/><path fill="#F38A5D" d="M40 32h5v16h-5z"/><path d="M40 33h2v15h-2V33Z" fill="#EF6524"/><path d="M38 48v-5s4 1 4 5h-4ZM47 48h-3.5c0-4.67 3.5-7 3.5-7v7Z" fill="#109E57"/><path opacity=".4" d="M40 32h5v1h-5v-1Z" fill="#1A1A1A"/><path d="M27 19a5 5 0 0 1 5-5h21a4 4 0 0 1 4 4v13a1 1 0 0 1-1 1H27V19ZM23 30h4v2h-2a2 2 0 0 1-2-2Z" fill="#07C"/><path fill-rule="evenodd" clip-rule="evenodd" d="M44 22.5c0 .17-.02.34-.05.5H52v4l-1.5-1.45L49 27v-3h-5.5a2.5 2.5 0 1 1 .5-1.5Z" fill="#064D80"/><path fill-rule="evenodd" clip-rule="evenodd" d="M42.5 23a1 1 0 1 0 0-2 1 1 0 0 0 0 2Zm0 1.5a2.5 2.5 0 0 0 2.3-1.5H50v3.5l1.5-2 1.5 2V21h-8.2a2.5 2.5 0 1 0-2.3 3.5Z" fill="#D62761"/><path d="M32 16h24.45s.55 1 .55 2H32v-2Z" fill="#2294E6"/><path d="M28 19a4 4 0 0 1 8 0v11h-8V19Z" fill="#064D80"/><path d="M8 16h16v11H8V16Z" fill="#FFBE00"/><path opacity=".4" d="M8 16h16l-8 6.5L8 16Z" fill="#1A1A1A"/><path d="M8 16h16l-8 5.5L8 16Z" fill="#FC0"/><circle cx="7" cy="16" r="4.5" fill="#D62761" stroke="#F7F8FA"/><path d="M7 14v2M7 17v1" stroke="#fff"/></svg>